<svg xmlns="http://www.w3.org/2000/svg" xmlns:xlink="http://www.w3.org/1999/xlink" width="125.3" height="48.83" viewBox="0 0 125.3 48.83">
  <defs>
    <style>
      .cls-1 {
        fill: none;
      }

      .cls-2 {
        fill: #023047;
      }

      .cls-3 {
        clip-path: url(#clip-path);
      }
    </style>
    <clipPath id="clip-path">
      <rect id="Rectangle_49" data-name="Rectangle 49" class="cls-1" width="125.3" height="48.83"/>
    </clipPath>
  </defs>
  <g id="Artwork_1" data-name="Artwork 1" transform="translate(62.65 24.415)">
    <g id="Artwork_1-2" data-name="Artwork 1" transform="translate(-62.65 -24.415)">
      <path id="Path_102" data-name="Path 102" class="cls-2" d="M17,4.5V11H10.5Zm1.4-4L0,19.3H2.1l6.8-6.8H17v6.8h1.8V.5Z"/>
      <rect id="Rectangle_48" data-name="Rectangle 48" class="cls-2" width="1.8" height="19.32" transform="translate(22.3)"/>
      <g id="Group_23" data-name="Group 23" class="cls-3">
        <path id="Path_103" data-name="Path 103" class="cls-2" d="M41.3,9.8l-1.2,1.1c.4,2.3.2,3.4-1.9,5.5s-5.3,2-7.6-.2l8.9-8.9c-3.3-3.2-7.6-3-10.4-.2a7.2,7.2,0,0,0,.2,10.3,7,7,0,0,0,10.3,0,7,7,0,0,0,1.7-7.6M30.4,8.4A5.1,5.1,0,0,1,37,7.6L29.7,15c-1.4-2.6-1.1-4.8.7-6.6"/>
        <path id="Path_104" data-name="Path 104" class="cls-2" d="M47.5,12l7.6-6.6H52.5L46,11V0H44.3V19.3H46V13l7,6.3h2.6Z"/>
        <path id="Path_105" data-name="Path 105" class="cls-2" d="M60.7,10.5a2.3,2.3,0,0,1-1.1-1.9,2,2,0,0,1,2.1-1.8,3.9,3.9,0,0,1,2.8,1.3l1.2-1.2A5.5,5.5,0,0,0,61.8,5,3.7,3.7,0,0,0,58,8.7c0,2.4,1.6,3.2,4.8,5a2.2,2.2,0,0,1,1.1,2A2.5,2.5,0,0,1,61.3,18a4,4,0,0,1-2.9-1.5l-1.1,1.3a5.3,5.3,0,0,0,4.1,2,4.1,4.1,0,0,0,4.2-4.1c0-2.5-1.8-3.2-5-5.1"/>
        <path id="Path_106" data-name="Path 106" class="cls-2" d="M80.3,5.4V7.9A6.5,6.5,0,0,0,74.8,5a7.2,7.2,0,0,0-7.2,7.3,7.2,7.2,0,0,0,7.1,7.3,7.1,7.1,0,0,0,5.6-2.7v2.4h1.8V5.4ZM74.9,18a5.6,5.6,0,0,1-5.5-5.7,5.5,5.5,0,1,1,11,.1A5.5,5.5,0,0,1,74.9,18"/>
        <path id="Path_107" data-name="Path 107" class="cls-2" d="M92.4,5a5.9,5.9,0,0,0-4,1.5,7.8,7.8,0,0,0-1.3,1.4V5.4H85.4V19.3h1.8V13.5c0-2.2.2-3.6,1.2-4.9h.1a4.4,4.4,0,0,1,3.6-1.8c2.7,0,3.7,1.8,3.7,5.1v7.6h1.8v-8c0-4.4-2.1-6.5-5.2-6.5"/>
        <path id="Path_108" data-name="Path 108" class="cls-2" d="M113.1,0V7.9A6.6,6.6,0,0,0,107.5,5a7.2,7.2,0,0,0-7.2,7.3,7.2,7.2,0,0,0,7.1,7.3,7.1,7.1,0,0,0,5.6-2.7v2.4h1.8V0Zm-5.4,18a5.6,5.6,0,0,1-5.5-5.7,5.5,5.5,0,1,1,11,.1,5.5,5.5,0,0,1-5.5,5.6"/>
        <path id="Path_109" data-name="Path 109" class="cls-2" d="M123.7,5c-1.4,0-2.5.9-3.6,2.4v-2h-1.9V19.3h1.9V14a19.4,19.4,0,0,1,.3-4.2c.5-1.9,1.7-3,3-3a2,2,0,0,1,1,.3l.9-1.5a2.8,2.8,0,0,0-1.6-.5"/>
        <path id="Path_110" data-name="Path 110" class="cls-2" d="M22.2,29.2v2.6a6.6,6.6,0,0,0-5.6-2.9,7.4,7.4,0,1,0,0,14.8,7.1,7.1,0,0,0,5.7-2.8v2.4H24V29.2ZM16.7,42a5.7,5.7,0,0,1-5.6-5.7A5.6,5.6,0,1,1,16.7,42"/>
        <path id="Path_111" data-name="Path 111" class="cls-2" d="M39.6,29.2v2.5A6.9,6.9,0,0,0,34,28.9a7.218,7.218,0,1,0,5.7,11.8v1.1a6.2,6.2,0,0,1-.6,3.1c-.8,1.5-2.6,2.4-4.9,2.4A5.72,5.72,0,0,1,29,44.6H27c1.3,2.7,3.2,4.4,7.3,4.4a7.2,7.2,0,0,0,6-2.6c1.1-1.6,1.3-3.5,1.3-5.8V29.2ZM34.3,41.6c-3.7,0-5.7-2.5-5.7-5.3a5.6,5.6,0,0,1,5.7-5.7,5.3,5.3,0,0,1,5.4,5.6,5.2,5.2,0,0,1-5.4,5.4"/>
        <path id="Path_112" data-name="Path 112" class="cls-2" d="M55.3,29.2v6.9c0,2,0,3.4-1.1,4.6A4.3,4.3,0,0,1,51,41.9a4.1,4.1,0,0,1-3.9-2.3,9,9,0,0,1-.4-3.5V29.2H44.8v7.3c0,4.8,2.2,7.1,6.2,7.1s6.2-2.4,6.2-7.1V29.2Z"/>
        <path id="Path_113" data-name="Path 113" class="cls-2" d="M67.3,28.9A6.4,6.4,0,0,0,62,31.8V29.2H60.2V43.3H62V37.4c0-2.2.2-3.6,1.2-5a4.5,4.5,0,0,1,3.7-1.9c2.7,0,3.8,1.8,3.8,5.1v7.7h1.8V35.4c0-4.4-2.2-6.6-5.2-6.6"/>
        <path id="Path_114" data-name="Path 114" class="cls-2" d="M88.4,31.6a7.2,7.2,0,0,0-5.8-2.9,7.4,7.4,0,1,0,5.8,12,7.5,7.5,0,0,0,1.5-4.5,7.6,7.6,0,0,0-1.5-4.6M82.6,41.8a5.5,5.5,0,1,1,3.925-1.646A5.5,5.5,0,0,1,82.6,41.8"/>
        <path id="Path_115" data-name="Path 115" class="cls-2" d="M105.5,29.3,94.8,39.5V29.3H93l.1,14.1h.4l14-14.1Z"/>
        <path id="Path_116" data-name="Path 116" class="cls-2" d="M0,24.3v1.8H4.3V43.3H6.2V26.1h4.2V24.3Z"/>
      </g>
    </g>
  </g>
</svg>
